<mxfile host="app.diagrams.net" modified="2024-03-04T12:41:36.544Z" agent="Mozilla/5.0 (Macintosh; Intel Mac OS X 10_15_7) AppleWebKit/537.36 (KHTML, like Gecko) Chrome/122.0.0.0 Safari/537.36" version="23.1.8" etag="qjYDjA7D5syWwCYN_Yuf" type="github">
  <diagram name="第 1 页" id="xy2op8Vv4HeoLgSXpw2a">
    <mxGraphModel>
      <root>
        <mxCell id="0" />
        <mxCell id="1" parent="0" />
      </root>
    </mxGraphModel>
  </diagram>
</mxfile>
